<svg width="14" height="14" viewBox="0 0 14 14" fill="none" xmlns="http://www.w3.org/2000/svg">
<path id="Vector" d="M7.46589 1.30205L8.93705 4.39916C8.97051 4.47777 9.02314 4.54586 9.0897 4.59665C9.15626 4.64743 9.23443 4.67914 9.3164 4.68861L12.5641 5.19032C12.6581 5.20293 12.7467 5.24317 12.8197 5.30635C12.8926 5.36953 12.9468 5.45304 12.9759 5.54713C13.005 5.64122 13.0078 5.742 12.984 5.83771C12.9603 5.93341 12.9109 6.02009 12.8416 6.08762L10.5007 8.50934C10.441 8.56755 10.3961 8.64041 10.3703 8.72129C10.3444 8.80217 10.3384 8.88852 10.3527 8.97246L10.9171 12.3783C10.9334 12.4762 10.9231 12.5769 10.8873 12.6689C10.8515 12.7609 10.7916 12.8407 10.7145 12.899C10.6373 12.9573 10.5461 12.9918 10.451 12.9987C10.356 13.0056 10.261 12.9845 10.1769 12.9379L7.25308 11.3266C7.17821 11.2883 7.09591 11.2684 7.01251 11.2684C6.92911 11.2684 6.84681 11.2883 6.77194 11.3266L3.84813 12.9379C3.76401 12.9845 3.66903 13.0056 3.574 12.9987C3.47897 12.9918 3.38769 12.9573 3.31057 12.899C3.23344 12.8407 3.17356 12.7609 3.13774 12.6689C3.10191 12.5769 3.09158 12.4762 3.10792 12.3783L3.67233 8.93387C3.68664 8.84992 3.68058 8.76358 3.65473 8.6827C3.62887 8.60181 3.58403 8.52895 3.52429 8.47075L1.15563 6.08762C1.08555 6.01824 1.03627 5.92916 1.01375 5.83118C0.991238 5.73319 0.996452 5.6305 1.02877 5.53554C1.06108 5.44058 1.1191 5.35743 1.19581 5.29616C1.27252 5.23488 1.36463 5.19812 1.46097 5.19032L4.70862 4.68861C4.7906 4.67914 4.86876 4.64743 4.93532 4.59665C5.00188 4.54586 5.05452 4.47777 5.08798 4.39916L6.55913 1.30205C6.5992 1.21185 6.66317 1.13548 6.74351 1.08196C6.82384 1.02844 6.91718 1 7.01251 1C7.10784 1 7.20118 1.02844 7.28152 1.08196C7.36185 1.13548 7.42582 1.21185 7.46589 1.30205Z" fill="#7B919C" stroke="#7B919C" stroke-width="1.71429" stroke-linecap="round" stroke-linejoin="round"/>
</svg>
